<svg width="26" height="30" viewBox="0 0 26 30" fill="none" xmlns="http://www.w3.org/2000/svg">
<path fill-rule="evenodd" clip-rule="evenodd" d="M10.0848 29.272L13.8829 25.0609C13.9469 24.9978 13.9042 24.8925 13.7975 24.8925H9.61535C9.59401 24.8925 9.55134 24.8714 9.53 24.8504L5.98797 20.934C5.96663 20.8919 5.94529 20.8498 5.96663 20.8077L11.8985 10.7642C11.9198 10.7221 11.9198 10.68 11.8985 10.6589L9.44465 6.48991C9.40197 6.42674 9.29529 6.42674 9.25261 6.48991L0.482876 21.3551C0.461539 21.3973 0.461539 21.4394 0.482876 21.4815L7.52427 29.2931C7.54561 29.3142 7.56695 29.3352 7.60962 29.3352H9.99943C10.0208 29.3142 10.0634 29.2931 10.0848 29.272Z" fill="#232323"/>
<path d="M10.2128 4.84756C10.1915 4.88967 10.1915 4.93178 10.2128 4.95284L19.5586 20.7866C19.58 20.8288 19.58 20.8709 19.5373 20.913L15.9526 24.8714L12.1332 29.1247C12.0692 29.1878 12.1118 29.2931 12.2185 29.2931H17.937C17.9583 29.2931 18.001 29.272 18.0223 29.251L25.0637 21.4394C25.0851 21.3973 25.1064 21.3551 25.0851 21.313L12.8587 0.678554C12.8373 0.594331 12.7306 0.594331 12.688 0.678554L10.2128 4.84756Z" fill="#232323"/>
</svg>
